<?xml version="1.0" encoding="UTF-8"?> <!-- Generator: Adobe Illustrator 25.2.0, SVG Export Plug-In . SVG Version: 6.00 Build 0) --> <svg xmlns="http://www.w3.org/2000/svg" xmlns:xlink="http://www.w3.org/1999/xlink" version="1.1" id="Layer_1" x="0px" y="0px" viewBox="0 0 600 154.11" style="enable-background:new 0 0 600 154.11;" xml:space="preserve"> <style type="text/css"> .st0{fill:#44D9FC;} .st1{fill:#C9C9C9;} </style> <g> <polyline class="st0" points="0,1.77 0,112.33 75.15,19.35 82.79,29.79 0,154.11 154.38,154.11 81.77,47.88 89.42,37.18 153.62,113.6 153.62,1.77 "></polyline> </g> <g> <g> <path class="st1" d="M267.68,58.01c-2.77,0-4.92,0.1-4.92-0.89c0-1.39,0.92-2.49,1.69-3.68l11.85-17.61 c0.77-1.09,1.39-1.19,1.7-1.19c0.77,0,0.31,0,1.23,0.8l12.63,18.01c0.77,1.19,1.69,2.29,1.69,3.68c0,0.99-2.16,0.89-4.93,0.89 H267.68z M293.4,63.38c4,0,4.77,1,9.85,8.76c1.7,2.69,2.78,4.48,2.78,6.67c0,6.07-10.93,4.97-10.93,7.86c0,1.39,2,1.19,4.77,1.19 c4.47,0,10.16-0.4,16.94-0.4c10.16,0,14.32,0.4,19.86,0.4c4.16,0,5.55,0.2,5.55-1.49c0-3.28-8.31,0.6-13.24-6.46l-41.57-60.89 c-2-2.98-2.31-3.18-3.7-3.18c-2,0-2.77,1.89-3.85,3.48L238.12,79.5c-3.85,5.58-11.7,4.98-11.7,7.26c0,1.29,2.46,1.09,4.62,1.09 c4.47,0,8.93-0.4,13.55-0.4c4.93,0,9.55,0.4,14.47,0.4c3.24,0,8.01,0.7,8.01-1.39c0-2.68-16.63-1.09-16.63-8.26 c0-2.39,2.15-5.87,3.23-7.86c3.54-6.57,6.77-6.97,9.39-6.97H293.4z"></path> <path class="st1" d="M447.68,38.81c0.15,0.99,0.77,3.28-1.85,3.28c-2.46,0-3.54-2.09-4.62-3.38c-7.7-9.55-21.25-18.2-39.11-18.2 c-22.63,0-35.11,13.93-35.11,27.26c0,14.03,12.32,33.73,41.72,33.73c23.86,0,34.34-13.03,38.34-13.03c0.77,0,2.16,0.5,2.16,1.1 c0,3.98-16.32,19-49.12,19c-45.11,0-52.04-25.47-52.04-33.33c0-16.72,15.86-38.7,54.66-38.7c18.63,0,30.49,6.07,35.11,6.07 c2.92,0,3.08-3.28,5.24-3.28c0.77,0,1.84,0.1,1.84,0.6L447.68,38.81z"></path> <path class="st1" d="M498.63,58.01c-2.77,0-4.93,0.1-4.93-0.89c0-1.39,0.93-2.49,1.7-3.68l11.86-17.61 c0.77-1.09,1.38-1.19,1.69-1.19c0.77,0,0.31,0,1.23,0.8l12.62,18.01c0.77,1.19,1.7,2.29,1.7,3.68c0,0.99-2.16,0.89-4.93,0.89 H498.63z M524.35,63.38c4,0,4.77,1,9.85,8.76c1.69,2.69,2.77,4.48,2.77,6.67c0,6.07-10.93,4.97-10.93,7.86 c0,1.39,2,1.19,4.77,1.19c4.46,0,10.16-0.4,16.94-0.4c10.16,0,14.31,0.4,19.86,0.4c4.16,0,5.54,0.2,5.54-1.49 c0-3.28-8.32,0.6-13.24-6.46l-41.57-60.89c-2-2.98-2.31-3.18-3.69-3.18c-2,0-2.77,1.89-3.85,3.48L469.07,79.5 c-3.85,5.58-11.7,4.98-11.7,7.26c0,1.29,2.46,1.09,4.62,1.09c4.46,0,8.93-0.4,13.55-0.4c4.93,0,9.54,0.4,14.47,0.4 c3.23,0,8,0.7,8-1.39c0-2.68-16.63-1.09-16.63-8.26c0-2.39,2.16-5.87,3.23-7.86c3.54-6.57,6.77-6.97,9.39-6.97H524.35z"></path> </g> <path class="st1" d="M201.02,121.35h10.11v1.33h-0.54c-1.72,0-2.41,0.78-2.41,2.55v13.47c0,1.67,0.54,2.49,2.48,2.49h0.48v1.32 h-10.11v-1.32h0.44c1.68,0,2.32-0.85,2.32-2.35v-13.6c0-1.77-0.57-2.55-2.35-2.55h-0.41V121.35z"></path> <path class="st1" d="M227.78,138.42c0,2.08,0.6,2.76,3.15,2.76v1.32h-7.69v-1.32h0.19c1.94,0,2.42-0.75,2.42-2.14v-15.61 c-0.7-0.51-1.56-0.75-2.54-0.75v-1.33h6.55l12.97,14.49v-10.27c0-2.45-0.48-2.89-3.02-2.89h-0.32v-1.33h8.2v1.33h-0.32 c-1.97,0-2.61,0.44-2.61,1.73v18.2h-1.75l-15.22-17.04V138.42z"></path> <path class="st1" d="M268.68,138.63c0,1.77,0.51,2.55,2.77,2.55h0.76v1.32h-11.44v-1.32h1.08c1.75,0,2.45-0.75,2.45-2.55v-15.51 h-3.75c-2.45,0-2.83,0.41-3.43,4.01h-1.3l0.57-6.36h1.02c0.25,0.24,0.41,0.41,0.6,0.48c0.22,0.07,0.48,0.1,0.92,0.1h15.13 c0.86,0,1.02-0.07,1.52-0.58h1.02l0.57,6.36h-1.3c-0.6-3.57-0.99-4.01-3.43-4.01h-3.75V138.63z"></path> <path class="st1" d="M303.74,123.22h-6.96v7.65h5.15c1.75,0,2.38-0.65,2.38-2.45h1.27v6.77h-1.27c0-1.84-0.41-2.45-2.86-2.45h-4.67 v6.12c0,1.46,0.26,1.77,1.18,1.77h5.31c2.07,0,3.05-0.61,3.66-3.47h1.21l-0.38,5.34h-19.13v-1.32h1.3c1.84,0,2.48-0.78,2.48-2.45 v-13.57c0-1.84-0.57-2.48-2.77-2.48h-0.32v-1.33h17.51l0.32,4.93h-1.21C305.62,123.96,305.2,123.22,303.74,123.22z"></path> <path class="st1" d="M327.77,122.3h1.65c3.08,0,5.66,1.29,5.66,4.9c0,3.64-2.23,4.9-6.07,4.9h-1.24V122.3z M327.77,133.53h2.51 c2.03,1.87,3.88,5.44,5.47,7.14c1.49,1.6,3.11,2.21,7.06,2.21c0.95,0,1.27,0,1.97-0.03v-1.33c-2-0.21-2.89-0.61-4.2-2.01 c-2.26-2.41-3.37-5.1-5.47-6.97c2.96-0.85,4.7-2.89,4.7-5.47c0-1.46-0.48-2.76-1.53-3.88c-1.59-1.7-4.13-2.35-8.8-2.35 c-1.14,0-3.43,0.1-5.21,0.24c-1.3,0.1-2.51,0.17-4.1,0.27v1.33h0.67c2.13,0,2.54,0.95,2.54,2.58v13.44c0,1.97-0.83,2.49-2.77,2.49 h-0.51v1.32h11.12v-1.32h-0.95c-1.81,0-2.51-0.75-2.51-2.49V133.53z"></path> <path class="st1" d="M360.19,138.42c0,2.08,0.6,2.76,3.15,2.76v1.32h-7.69v-1.32h0.19c1.94,0,2.42-0.75,2.42-2.14v-15.61 c-0.7-0.51-1.56-0.75-2.54-0.75v-1.33h6.55l12.97,14.49v-10.27c0-2.45-0.48-2.89-3.02-2.89h-0.32v-1.33h8.2v1.33h-0.32 c-1.97,0-2.61,0.44-2.61,1.73v18.2h-1.75l-15.22-17.04V138.42z"></path> <path class="st1" d="M402.12,132.78h-5.6l2.67-7.96L402.12,132.78z M402.85,134.65l1.49,3.95c0.63,1.67,0.35,2.58-1.59,2.58h-1.11 v1.32h10.33v-1.32c-1.65-0.14-2.35-0.82-3.18-3.06l-6.36-17.28h-4.7l0.35,0.99l-5.44,16.22c-0.79,2.38-1.59,3.13-3.11,3.13h-0.48 v1.32h8.42v-1.32h-0.41c-3.05,0-3.08-0.82-2.51-2.55l1.33-3.98H402.85z"></path> <path class="st1" d="M432.66,138.63c0,1.77,0.51,2.55,2.77,2.55h0.76v1.32h-11.44v-1.32h1.08c1.75,0,2.45-0.75,2.45-2.55v-15.51 h-3.75c-2.44,0-2.83,0.41-3.43,4.01h-1.3l0.57-6.36h1.02c0.26,0.24,0.41,0.41,0.6,0.48c0.22,0.07,0.48,0.1,0.92,0.1h15.13 c0.86,0,1.02-0.07,1.53-0.58h1.02l0.57,6.36h-1.3c-0.6-3.57-0.98-4.01-3.43-4.01h-3.75V138.63z"></path> <path class="st1" d="M453.38,121.35h10.11v1.33h-0.54c-1.71,0-2.41,0.78-2.41,2.55v13.47c0,1.67,0.54,2.49,2.48,2.49h0.48v1.32 h-10.11v-1.32h0.44c1.68,0,2.32-0.85,2.32-2.35v-13.6c0-1.77-0.57-2.55-2.35-2.55h-0.41V121.35z"></path> <path class="st1" d="M481.22,130.63c0-5.14,2.64-8.47,6.68-8.47c4.83,0,7.37,5.1,7.37,10.58c0,4.69-2.06,8.77-6.48,8.77 C484.3,141.52,481.22,137.13,481.22,130.63z M476.49,132.27c0,5.71,4.26,10.71,11.57,10.71c7.6,0,11.95-5.41,11.95-11.46 c0-6.36-4.7-10.82-11.34-10.82C481.57,120.7,476.49,125.53,476.49,132.27z"></path> <path class="st1" d="M517.55,138.42c0,2.08,0.6,2.76,3.14,2.76v1.32H513v-1.32h0.19c1.94,0,2.42-0.75,2.42-2.14v-15.61 c-0.7-0.51-1.56-0.75-2.54-0.75v-1.33h6.55l12.97,14.49v-10.27c0-2.45-0.48-2.89-3.02-2.89h-0.32v-1.33h8.2v1.33h-0.32 c-1.97,0-2.6,0.44-2.6,1.73v18.2h-1.75l-15.22-17.04V138.42z"></path> <path class="st1" d="M559.48,132.78h-5.6l2.67-7.96L559.48,132.78z M560.21,134.65l1.49,3.95c0.63,1.67,0.35,2.58-1.59,2.58H559 v1.32h10.33v-1.32c-1.65-0.14-2.35-0.82-3.18-3.06l-6.36-17.28h-4.7l0.35,0.99L550,138.05c-0.79,2.38-1.59,3.13-3.11,3.13h-0.48 v1.32h8.42v-1.32h-0.41c-3.05,0-3.08-0.82-2.51-2.55l1.33-3.98H560.21z"></path> <path class="st1" d="M597.68,142.5h-17.04v-1.32h0.54c2.03,0,2.64-0.78,2.64-2.45v-13.6c0-2.01-1.08-2.45-2.51-2.45h-0.6v-1.33 h10.77v1.33h-0.92c-1.65,0-2.35,0.78-2.35,2.38v14.01c0,1.26,0.35,1.56,1.59,1.56h4.04c2.13,0,2.76-1.12,4.89-4.05H600 L597.68,142.5z"></path> <g> <path class="st1" d="M577.62,24.43c0,6.69-5.43,12.12-12.13,12.12s-12.13-5.43-12.13-12.12c0-6.7,5.43-12.13,12.13-12.13 S577.62,17.73,577.62,24.43z M554.41,24.43c0,6.13,4.94,11.07,11.07,11.07c6.13,0,11.07-4.94,11.07-11.07 c0-6.14-4.94-11.08-11.07-11.08C559.35,13.35,554.41,18.29,554.41,24.43z M565.35,16.96c3.09,0,5.12,1.54,5.12,3.86 c0,1.89-1.26,3.16-3.82,3.79l3.58,5.12c0.77,1.12,1.22,1.44,2.07,1.51v0.56h-3.16l-5.05-6.94h-1.26v5.05c0,0.95,0.46,1.33,2,1.33 v0.56h-6.27v-0.56c1.3,0,1.79-0.52,1.79-1.51V19.06c0-0.91-0.28-1.47-1.58-1.47v-0.63H565.35z M563.49,24.11 c2.14,0,4.2-0.88,4.2-3.12c0-1.86-1.47-3.26-3.47-3.26c-0.49,0-0.81,0.07-1.4,0.24v6.14H563.49z"></path> </g> </g> </svg> 