<?xml version="1.0" encoding="UTF-8"?>
<svg id="Layer_2" data-name="Layer 2" xmlns="http://www.w3.org/2000/svg" xmlns:xlink="http://www.w3.org/1999/xlink" viewBox="0 0 758.91 230.84">
  <defs>
    <style>
      .cls-1 {
        fill: url(#linear-gradient-2);
      }

      .cls-2 {
        fill: #fff;
      }

      .cls-3 {
        fill: url(#linear-gradient-3);
      }

      .cls-4 {
        fill: url(#linear-gradient);
      }
    </style>
    <linearGradient id="linear-gradient" x1="213.08" y1="17.79" x2="-2.4" y2="142.14" gradientUnits="userSpaceOnUse">
      <stop offset="0" stop-color="#00aee3"/>
      <stop offset=".13" stop-color="#09a6df"/>
      <stop offset=".34" stop-color="#2391d7"/>
      <stop offset=".6" stop-color="#4e6eca"/>
      <stop offset=".91" stop-color="#883fb8"/>
      <stop offset=".99" stop-color="#9932b3"/>
    </linearGradient>
    <linearGradient id="linear-gradient-2" x1="108.02" y1="21.39" x2="121.19" y2="143.41" gradientUnits="userSpaceOnUse">
      <stop offset="0" stop-color="#7e5dcc" stop-opacity="0"/>
      <stop offset=".21" stop-color="#7556bd" stop-opacity=".11"/>
      <stop offset=".53" stop-color="#5d4496" stop-opacity=".4"/>
      <stop offset=".91" stop-color="#362757" stop-opacity=".88"/>
      <stop offset="1" stop-color="#2c2047"/>
    </linearGradient>
    <linearGradient id="linear-gradient-3" x1="184.69" y1="50.9" x2="40.85" y2="261.73" gradientUnits="userSpaceOnUse">
      <stop offset="0" stop-color="#00d5fc"/>
      <stop offset=".19" stop-color="#32b1fb"/>
      <stop offset=".47" stop-color="#7a7efa"/>
      <stop offset=".72" stop-color="#af58f9"/>
      <stop offset=".89" stop-color="#d041f9"/>
      <stop offset=".99" stop-color="#dd39f9"/>
    </linearGradient>
  </defs>
  <g id="LOGOS">
    <g>
      <g>
        <path class="cls-4" d="M228,54.57v75.05c0,10.36-9.24,18.28-19.48,16.7L14.32,116.33C6.08,115.06,0,107.97,0,99.63V24.97C0,9.66,13.65-2.04,28.78.3l176,27.19c13.36,2.06,23.22,13.56,23.22,27.08Z"/>
        <path class="cls-1" d="M228,54.57v75.05c0,10.36-9.24,18.28-19.48,16.7L14.32,116.33C6.08,115.06,0,107.97,0,99.63V24.97C0,9.66,13.65-2.04,28.78.3l176,27.19c13.36,2.06,23.22,13.56,23.22,27.08Z"/>
        <path class="cls-3" d="M225,67.08c-6.61,13.1-19.58,14.56-19.58,14.56l-27.21,4.22L18.76,110.48c-10.79,1.67-18.76,10.96-18.76,21.88v70.09c0,17.41,15.52,30.71,32.72,28.06l169.26-26.15c14.97-2.31,26.02-15.2,26.02-30.35V56.13c-.23,5.9-3,10.95-3,10.95Z"/>
      </g>
      <g>
        <path class="cls-2" d="M306.54,171V57.13h45.71c8.24,0,15.7,1.36,22.37,4.07,6.67,2.71,12.42,6.62,17.24,11.71,4.82,5.1,8.51,11.12,11.06,18.06,2.55,6.94,3.82,14.64,3.82,23.1s-1.28,16.18-3.82,23.18c-2.55,6.99-6.21,13.01-10.98,18.06-4.77,5.04-10.52,8.92-17.24,11.63-6.73,2.71-14.21,4.07-22.45,4.07h-45.71ZM327.69,154.57l-1.63-3.09h25.38c5.31,0,10.06-.87,14.23-2.6,4.17-1.73,7.73-4.23,10.65-7.48,2.93-3.25,5.15-7.18,6.67-11.79,1.52-4.61,2.28-9.78,2.28-15.53s-.76-10.92-2.28-15.53c-1.52-4.61-3.77-8.54-6.75-11.79-2.98-3.25-6.53-5.75-10.65-7.48-4.12-1.73-8.84-2.6-14.15-2.6h-25.86l2.11-2.77v80.68Z"/>
        <path class="cls-2" d="M432.93,171V57.13h49.45c6.83,0,13.07,1.6,18.71,4.8,5.64,3.2,10.11,7.54,13.42,13.01,3.31,5.48,4.96,11.63,4.96,18.46s-1.65,12.5-4.96,17.97c-3.31,5.48-7.75,9.82-13.34,13.01-5.59,3.2-11.85,4.8-18.79,4.8h-28.79v41.8h-20.66ZM453.59,110.81h28.95c3.15,0,5.88-.73,8.22-2.2,2.33-1.46,4.15-3.5,5.45-6.1,1.3-2.6,1.95-5.47,1.95-8.62,0-3.58-.81-6.67-2.44-9.27-1.63-2.6-3.9-4.66-6.83-6.18-2.93-1.52-6.29-2.28-10.08-2.28h-25.21v34.65ZM498.97,171l-28.96-51.4,21.8-4.07,32.21,55.63-25.05-.16Z"/>
        <path class="cls-2" d="M597.06,172.63c-8.13,0-15.67-1.46-22.61-4.39-6.94-2.93-12.99-7.02-18.14-12.28-5.15-5.26-9.14-11.47-11.96-18.62-2.82-7.16-4.23-14.97-4.23-23.42s1.41-16.27,4.23-23.42c2.82-7.16,6.8-13.36,11.96-18.63,5.15-5.26,11.2-9.35,18.14-12.28,6.94-2.93,14.48-4.39,22.61-4.39s15.83,1.46,22.77,4.39c6.94,2.93,12.96,7.05,18.06,12.36,5.1,5.31,9.05,11.52,11.87,18.63,2.82,7.1,4.23,14.88,4.23,23.34s-1.41,16.1-4.23,23.26c-2.82,7.16-6.78,13.39-11.87,18.71-5.1,5.31-11.12,9.44-18.06,12.36-6.94,2.93-14.53,4.39-22.77,4.39ZM597.06,152.45c5.21,0,9.95-.95,14.23-2.85,4.28-1.9,8-4.61,11.14-8.13,3.14-3.52,5.61-7.62,7.4-12.28,1.79-4.66,2.68-9.76,2.68-15.29s-.89-10.63-2.68-15.29c-1.79-4.66-4.26-8.76-7.4-12.28-3.15-3.52-6.86-6.23-11.14-8.13-4.29-1.9-9.03-2.85-14.23-2.85s-9.82.95-14.15,2.85c-4.34,1.9-8.08,4.58-11.22,8.05-3.15,3.47-5.59,7.54-7.32,12.2-1.74,4.66-2.6,9.82-2.6,15.45s.87,10.65,2.6,15.37c1.73,4.72,4.17,8.81,7.32,12.28,3.14,3.47,6.88,6.15,11.22,8.05,4.34,1.9,9.05,2.85,14.15,2.85Z"/>
        <path class="cls-2" d="M716.29,172.63c-6.62,0-12.69-.84-18.22-2.52-5.53-1.68-10.52-4.2-14.97-7.56-4.45-3.36-8.4-7.43-11.87-12.2l13.83-15.62c5.31,7.38,10.52,12.47,15.61,15.29,5.1,2.82,10.84,4.23,17.24,4.23,3.69,0,7.05-.57,10.09-1.71,3.03-1.14,5.42-2.71,7.16-4.72,1.73-2.01,2.6-4.31,2.6-6.91,0-1.84-.35-3.55-1.06-5.12-.71-1.57-1.76-2.98-3.17-4.23-1.41-1.24-3.15-2.41-5.21-3.5-2.06-1.08-4.39-2-6.99-2.77-2.6-.76-5.48-1.46-8.62-2.11-5.96-1.19-11.17-2.79-15.61-4.8-4.45-2-8.19-4.5-11.22-7.48-3.04-2.98-5.26-6.34-6.67-10.08-1.41-3.74-2.11-8-2.11-12.77s1.06-9.16,3.17-13.18c2.11-4.01,5.01-7.48,8.7-10.41,3.69-2.93,7.97-5.2,12.85-6.83,4.88-1.63,10.14-2.44,15.78-2.44,6.4,0,12.12.76,17.16,2.28,5.04,1.52,9.49,3.77,13.34,6.75,3.85,2.98,7.02,6.59,9.52,10.82l-13.99,13.83c-2.17-3.36-4.61-6.15-7.32-8.38-2.71-2.22-5.64-3.9-8.78-5.04s-6.45-1.71-9.92-1.71c-3.9,0-7.3.54-10.17,1.63-2.88,1.09-5.12,2.63-6.75,4.64-1.63,2.01-2.44,4.42-2.44,7.24,0,2.17.49,4.09,1.46,5.77.98,1.68,2.36,3.17,4.15,4.47,1.79,1.3,4.09,2.44,6.91,3.42,2.82.98,6.02,1.84,9.6,2.6,5.96,1.19,11.33,2.79,16.1,4.8,4.77,2.01,8.84,4.39,12.2,7.16,3.36,2.77,5.91,5.91,7.65,9.44,1.73,3.53,2.6,7.46,2.6,11.79,0,7.48-1.76,13.91-5.29,19.28-3.53,5.37-8.49,9.49-14.88,12.36-6.4,2.87-13.88,4.31-22.45,4.31Z"/>
      </g>
    </g>
  </g>
</svg>